<?xml version="1.0" encoding="utf-8"?>
<!-- Generator: Adobe Illustrator 27.5.0, SVG Export Plug-In . SVG Version: 6.00 Build 0)  -->
<svg version="1.1" id="Layer_1" xmlns="http://www.w3.org/2000/svg" xmlns:xlink="http://www.w3.org/1999/xlink" x="0px" y="0px"
	 viewBox="0 0 3873 3873" style="enable-background:new 0 0 3873 3873;" xml:space="preserve">
<g>
	<g>
		<path style="fill-rule:evenodd;clip-rule:evenodd;" d="M1938.9,488.1c266.1,0,483.3,216.5,483.3,483.3c0,49.6-7.9,99.2-22.8,146.4
			h194.4c10.2-48,15.7-96.8,15.7-146.4c0-370-300.7-671.5-671.5-671.5c-370,0-671.5,300.7-671.5,671.5c0,49.6,5.5,98.4,15.7,146.4
			h194.4c-15-47.2-22.8-96.8-22.8-146.4C1455.5,704.5,1672,488.1,1938.9,488.1z"/>
		<path style="fill-rule:evenodd;clip-rule:evenodd;" d="M2171.1,2030.2V3222h214.1v-810.8
			C2385.2,2250.6,2299.4,2108.9,2171.1,2030.2z"/>
		<path style="fill-rule:evenodd;clip-rule:evenodd;" d="M1812.1,1982.9v1238.3H2064V1982.9c-40.1-11.8-82.7-18.1-126-18.1
			C1894.8,1964.8,1852.3,1971.1,1812.1,1982.9z"/>
		<path style="fill-rule:evenodd;clip-rule:evenodd;" d="M1491.7,2411.2v810h214.1V2029.4
			C1578.3,2108.9,1491.7,2249.8,1491.7,2411.2z"/>
		<path style="fill-rule:evenodd;clip-rule:evenodd;" d="M2117.5,3327.5h-358.2H1439h-336.9c-21.3,0-40.9-12.6-48.8-32.3
			l-50.4-118.9c-3.1,0-5.5,0-8.7,0h-270l154.3,366.8c11,26,34.6,41.7,63,41.7h1994c28.3,0,52-15.7,63-41.7l154.3-366.8H2882
			c-3.1,0-5.5,0-8.7,0l-50.4,118.9c-8.7,19.7-27.6,32.3-48.8,32.3h-336.9H2117.5z"/>
		<path style="fill-rule:evenodd;clip-rule:evenodd;" d="M995,1737.3H644.7h-27.6c-50.4,0-90.5,40.9-90.5,90.5
			c0,29.9,14.2,55.9,36.2,72.4c0.8,0.8,1.6,0.8,2.4,1.6c15,11,33.1,16.5,52,16.5h300.7h77.9c50.4,0,90.5-40.9,90.5-90.5
			c0-41.7-28.3-76.4-66.1-87.4C1011.5,1738.9,1003.7,1737.3,995,1737.3z"/>
		<path style="fill-rule:evenodd;clip-rule:evenodd;" d="M561.3,2017.6l-151.1,359.7c-7.9,18.1-7.9,34.6,0,52.7l151.9,359.7
			c18.1-5.5,36.2-7.9,55.1-7.9h221.2l-151.9-357.4c-5.5-13.4-5.5-28.3,0-40.9l151.1-358.2H616.4c-4.7,0-9.4,0-13.4-0.8
			C588.8,2023.9,574.6,2021.5,561.3,2017.6z"/>
		<path style="fill-rule:evenodd;clip-rule:evenodd;" d="M917.1,2889H616.4c-20.5,0-39.4,7.1-54.3,18.1
			c-22,16.5-36.2,43.3-36.2,72.4c0,50.4,40.9,90.5,90.5,90.5H644h350.3c8.7,0,17.3-1.6,26-3.9c1.6-0.8,2.4-0.8,3.9-1.6
			c36.2-12.6,61.4-47.2,61.4-85.8c0-50.4-40.9-90.5-90.5-90.5L917.1,2889z"/>
		<path style="fill-rule:evenodd;clip-rule:evenodd;" d="M3260.5,1737.3h-350.3h-27.6c-50.4,0-90.5,40.9-90.5,90.5
			c0,29.9,14.2,55.9,36.2,72.4c0.8,0.8,1.6,0.8,2.4,1.6c15,11,33.1,16.5,52,16.5h300.7h77.9c50.4,0,90.5-40.9,90.5-90.5
			c0-41.7-28.3-76.4-66.1-87.4C3277.1,1738.9,3269.2,1737.3,3260.5,1737.3z"/>
		<path style="fill-rule:evenodd;clip-rule:evenodd;" d="M3183.4,2889h-300.7c-20.5,0-39.4,7.1-54.3,18.1
			c-22,16.5-36.2,43.3-36.2,72.4c0,50.4,40.9,90.5,90.5,90.5h27.6h350.3c8.7,0,17.3-1.6,26-3.9c1.6-0.8,2.4-0.8,3.9-1.6
			c36.2-12.6,61.4-47.2,61.4-85.8c0-50.4-40.9-90.5-90.5-90.5L3183.4,2889z"/>
		<path style="fill-rule:evenodd;clip-rule:evenodd;" d="M2708.7,2404.1c0,36.2,29.1,65.3,65.3,65.3s65.3-29.1,65.3-65.3
			s-29.1-65.3-65.3-65.3C2738.6,2338.7,2708.7,2367.9,2708.7,2404.1z"/>
		<path style="fill-rule:evenodd;clip-rule:evenodd;" d="M3260.5,2025.4h-221.2l151.1,358.2c5.5,13.4,5.5,28.3,0,40.9l-151.1,358.2
			h221.2c18.9,0,37,2.4,55.1,7.9l151.9-359.7c7.9-18.1,7.9-34.6,0-52.7l-151.9-359.7c-9.4,3.1-18.9,4.7-29.1,6.3
			C3277.9,2024.7,3269.2,2025.4,3260.5,2025.4z"/>
		<path style="fill-rule:evenodd;clip-rule:evenodd;" d="M2935.4,1223.3h-1994c-28.3,0-52,15.7-63,41.7l-154.3,366.8H995
			c3.1,0,5.5,0,8.7,0L1054,1513c7.9-19.7,27.6-32.3,48.8-32.3h1672.8c21.3,0,40.9,12.6,48.8,32.3l50.4,118.9c3.1,0,5.5,0,8.7,0
			h270.8L3000,1265C2987.4,1239,2963.8,1223.3,2935.4,1223.3z"/>
		<path style="fill-rule:evenodd;clip-rule:evenodd;" d="M2491.5,2411.2v810h248l33.1-78.7c-53.5-36.2-87.4-96.8-87.4-162.9
			c0-108.6,88.2-196.8,196.8-196.8h42.5l159.8-378.6l-159.8-378.6H2882c-108.6,0-196.8-88.2-196.8-196.8
			c0-66.1,33.8-127.5,87.4-162.9l-33.1-78.7h-1602l-33.1,78.7c53.5,36.2,87.4,96.8,87.4,162.9c0,108.6-88.2,196.8-196.8,196.8h-42.5
			l-159.8,378.6l159.8,378.6H995c108.6,0,196.8,88.2,196.8,196.8c0,66.1-33.8,127.5-87.4,162.9l33.1,78.7h248.8v-810
			c0-304.6,248-552.6,552.6-552.6S2491.5,2106.5,2491.5,2411.2L2491.5,2411.2z M2774.9,2575.7c-94.5,0-171.6-77.1-171.6-171.6
			s77.1-171.6,171.6-171.6s171.6,77.1,171.6,171.6C2945.7,2498.5,2869.3,2575.7,2774.9,2575.7z"/>
	</g>
</g>
<g id="Master_Layer_3">
</g>
</svg>
